{"title":"Jimmy.P.2013.720p.BRRip.x264-Fastbet99","uid":9526493,"size":1498301192,"categoryP":"video","categoryS":"hd___movies","magnet":"?xt=urn:btih:6073b5082c2db6d1742c5b655066141220bbca42&amp;dn=Jimmy.P.2013.720p.BRRip.x264-Fastbet99&amp;tr=udp%3A%2F%2Ftracker.openbittorrent.com%3A80&amp;tr=udp%3A%2F%2Fopen.demonii.com%3A1337&amp;tr=udp%3A%2F%2Ftracker.coppersurfer.tk%3A6969&amp;tr=udp%3A%2F%2Fexodus.desync.com%3A6969","seeders":2,"leechers":0,"uploader":"Fastbet99","files":-1,"time":1390758137,"description":"Jimmy P (2013)\n\nIMDB Info\t\t\t\t : http://www.imdb.com/title/tt2210834\n\nSource\t\t\t\t\t : CiNEFiLE (Thanks)\nComplete name                            : Jimmy.P.2013.720p.BRRip.x264-Fastbet99.mp4\nFormat                                   : MPEG-4\nFormat profile                           : Base Media\nCodec ID                                 : isom\nFile size                                : 1.40 GiB\nDuration                                 : 1h 56mn\nOverall bit rate mode                    : Variable\nOverall bit rate                         : 1 708 Kbps\n\nVideo\nID                                       : 1\nFormat                                   : AVC\nFormat/Info                              : Advanced Video Codec\nFormat profile                           : &lt;a class=&quot;__cf_email__&quot; href=&quot;/cdn-cgi/l/email-protection&quot; data-cfemail=&quot;a0e8c9c7c8e0ec948e91&quot;&gt;[email&amp;#160;protected]&lt;/a&gt;&lt;script cf-hash='f9e31' type=&quot;text/javascript&quot;&gt;\n/* &lt;![CDATA[ */!function(){try{var t=&quot;currentScript&quot;in document?document.currentScript:function(){for(var t=document.getElementsByTagName(&quot;script&quot;),e=t.length;e--;)if(t[e].getAttribute(&quot;cf-hash&quot;))return t[e]}();if(t&amp;&amp;t.previousSibling){var e,r,n,i,c=t.previousSibling,a=c.getAttribute(&quot;data-cfemail&quot;);if(a){for(e=&quot;&quot;,r=parseInt(a.substr(0,2),16),n=2;a.length-n;n+=2)i=parseInt(a.substr(n,2),16)^r,e+=String.fromCharCode(i);e=document.createTextNode(e),c.parentNode.replaceChild(e,c)}}}catch(u){}}();/* ]]&gt; */&lt;/script&gt;\nFormat settings, CABAC                   : Yes\nFormat settings, ReFrames                : 4 frames\nCodec ID                                 : avc1\nCodec ID/Info                            : Advanced Video Coding\nDuration                                 : 1h 56mn\nBit rate                                 : 1 610 Kbps\nMaximum bit rate                         : 8 397 Kbps\nWidth                                    : 1 280 pixels\nHeight                                   : 544 pixels\nDisplay aspect ratio                     : 2.35:1\nFrame rate mode                          : Constant\nFrame rate                               : 23.976 fps\nColor space                              : YUV\nChroma subsampling                       : 4:2:0\nBit depth                                : 8 bits\nScan type                                : Progressive\nBits/(Pixel*Frame)                       : 0.096\nStream size                              : 1.31 GiB (94%)\nWriting library                          : x264 core 138 r2358 9e941d1\n\nAudio\nID                                       : 2\nFormat                                   : AAC\nFormat/Info                              : Advanced Audio Codec\nFormat profile                           : LC\nCodec ID                                 : 40\nDuration                                 : 1h 56mn\nBit rate mode                            : Variable\nBit rate                                 : 96.0 Kbps\nMaximum bit rate                         : 147 Kbps\nChannel count                            : 2 channels\nChannel positions                        : Front: L R\nSampling rate                            : 48.0 KHz\nCompression mode                         : Lossy\nStream size                              : 80.1 MiB (6%)\nLanguage                                 : English\nEncoder\t\t\t\t\t : Fastbet99\n\nScreenshots\n &lt;a href=&quot;\nhttp://lookpic.com/O/i2/1651/zVDdCQo3.jpeg&quot; rel=&quot;nofollow&quot; target=&quot;_NEW&quot;&gt;\nhttp://lookpic.com/O/i2/1651/zVDdCQo3.jpeg&lt;/a&gt;\n\nStairway To heaven - Help People With Keep Seed As Long You Can","torrent":{"xt":"urn:btih:6073b5082c2db6d1742c5b655066141220bbca42","amp;dn":"Jimmy.P.2013.720p.BRRip.x264-Fastbet99","amp;tr":["udp%3A%2F%2Ftracker.openbittorrent.com%3A80","udp%3A%2F%2Fopen.demonii.com%3A1337","udp%3A%2F%2Ftracker.coppersurfer.tk%3A6969","udp%3A%2F%2Fexodus.desync.com%3A6969"],"infoHash":"6073b5082c2db6d1742c5b655066141220bbca42","infoHashBuffer":{"type":"Buffer","data":[96,115,181,8,44,45,182,209,116,44,91,101,80,102,20,18,32,187,202,66]},"announce":[],"urlList":[]}}